<?xml version="1.0" standalone="no"?>
<!DOCTYPE svg PUBLIC "-//W3C//DTD SVG 20010904//EN"
 "http://www.w3.org/TR/2001/REC-SVG-20010904/DTD/svg10.dtd">
<svg version="1.0" xmlns="http://www.w3.org/2000/svg"
 width="777.000000pt" height="777.000000pt" viewBox="0 0 777.000000 777.000000"
 preserveAspectRatio="xMidYMid meet">
<metadata>
Created by potrace 1.14, written by Peter Selinger 2001-2017
</metadata>
<g transform="translate(0.000000,777.000000) scale(0.100000,-0.100000)"
fill="#000000" stroke="none">
<path d="M5708 7145 c-2 -1 -38 -5 -80 -9 -167 -14 -383 -68 -543 -135 -141
-59 -383 -204 -490 -293 -84 -71 -235 -227 -297 -308 -90 -119 -168 -236 -161
-244 4 -3 2 -6 -3 -7 -55 -6 -84 -4 -84 4 0 5 -7 4 -15 -3 -11 -9 -18 -10 -28
-1 -8 6 -17 8 -20 5 -11 -11 -57 -13 -57 -2 0 7 -4 7 -12 1 -16 -13 -48 -13
-48 0 0 6 -5 6 -12 0 -16 -13 -48 -13 -48 0 0 5 -7 4 -15 -3 -11 -9 -18 -10
-28 -1 -8 6 -17 8 -20 5 -11 -11 -57 -13 -57 -2 0 6 -6 5 -15 -2 -11 -9 -18
-10 -28 -1 -8 6 -17 8 -20 5 -11 -11 -57 -13 -57 -2 0 6 -6 5 -15 -2 -11 -9
-18 -10 -28 -1 -8 6 -17 8 -20 5 -11 -11 -57 -13 -57 -2 0 6 -6 5 -15 -2 -11
-9 -18 -10 -28 -1 -8 6 -17 8 -20 5 -11 -11 -57 -13 -57 -2 0 7 -4 7 -12 1
-16 -13 -48 -13 -48 0 0 5 -6 4 -14 -2 -17 -14 -37 -11 -53 9 -12 13 -12 13
-8 -1 4 -10 0 -16 -10 -16 -8 0 -15 5 -15 10 0 5 -7 4 -15 -3 -11 -9 -18 -10
-28 -1 -8 6 -17 8 -20 5 -11 -11 -57 -13 -57 -2 0 6 -6 5 -15 -2 -11 -9 -18
-10 -28 -1 -8 6 -17 8 -20 5 -11 -11 -57 -13 -57 -2 0 6 -6 5 -15 -2 -11 -9
-18 -10 -28 -1 -8 6 -17 8 -20 5 -11 -11 -57 -13 -57 -2 0 6 -6 5 -15 -2 -11
-9 -18 -10 -28 -1 -8 6 -17 8 -20 5 -11 -11 -57 -13 -57 -2 0 7 -5 7 -12 1
-16 -11 -88 -10 -107 2 -10 5 -12 4 -7 -3 4 -7 3 -12 -3 -12 -5 0 -13 5 -16
10 -4 7 -13 6 -27 -1 -16 -9 -23 -8 -29 2 -7 12 -9 11 -9 0 0 -11 -3 -12 -12
-3 -8 8 -17 8 -31 0 -15 -7 -22 -7 -28 3 -7 12 -9 11 -9 0 0 -11 -3 -12 -12
-3 -8 8 -17 8 -31 0 -15 -7 -22 -7 -28 3 -7 12 -9 11 -9 0 0 -11 -3 -12 -12
-3 -8 8 -17 8 -30 1 -15 -8 -23 -7 -34 8 -10 13 -13 14 -9 2 4 -10 0 -16 -10
-16 -8 0 -15 5 -15 10 0 5 -7 4 -15 -3 -11 -9 -18 -10 -28 -1 -8 6 -17 8 -20
5 -11 -11 -57 -13 -57 -2 0 6 -6 5 -15 -2 -11 -9 -18 -10 -28 -1 -8 6 -17 8
-20 5 -11 -11 -57 -13 -57 -2 0 7 -5 7 -13 1 -14 -10 -87 -10 -104 0 -6 4 -14
3 -18 -3 -7 -11 -33 -9 -54 4 -10 6 -12 5 -7 -2 6 -11 -22 -17 -71 -15 -7 1
-13 -3 -13 -8 0 -5 -7 -9 -16 -9 -9 0 -38 -11 -64 -24 -27 -13 -52 -21 -56
-18 -4 4 -4 1 0 -5 4 -7 3 -13 -3 -13 -17 0 -122 -113 -143 -155 -12 -22 -23
-42 -27 -45 -3 -3 -8 -14 -9 -25 -2 -11 -7 -22 -10 -25 -14 -11 -16 -65 -19
-720 -2 -371 -7 -677 -11 -681 -4 -3 -41 -18 -82 -34 -91 -34 -303 -140 -355
-177 -328 -234 -533 -464 -687 -773 -72 -144 -141 -345 -163 -475 -17 -102
-25 -152 -30 -200 -9 -70 -9 -278 -1 -355 12 -105 17 -150 21 -165 2 -8 7 -29
9 -46 22 -129 97 -347 166 -484 153 -303 404 -586 670 -756 82 -52 104 -64
225 -124 251 -124 522 -189 798 -193 111 -1 313 10 327 18 3 1 28 6 55 9 166
22 448 125 640 235 327 188 622 513 788 871 l26 55 143 0 c79 0 149 -4 156 -8
6 -5 12 -5 12 0 0 10 370 10 386 1 6 -4 14 -4 18 -1 11 11 209 11 224 0 6 -5
12 -6 12 -1 0 11 370 12 386 2 6 -4 14 -4 18 -1 11 11 209 11 224 0 6 -5 12
-6 12 -1 0 11 375 12 386 2 4 -4 12 -4 18 -1 18 12 156 10 156 -2 0 -7 3 -7 8
0 8 12 41 13 58 3 6 -4 14 -4 18 -1 4 4 14 8 24 9 9 2 33 6 52 10 19 4 37 8
40 8 12 3 75 30 80 36 3 3 16 11 30 18 34 17 95 62 84 62 -5 0 3 8 16 17 14
10 29 17 33 15 5 -1 6 2 2 8 -3 5 7 29 23 52 29 44 64 132 69 178 1 14 3 84 4
157 1 93 5 131 13 126 6 -3 5 0 -1 8 -17 17 -17 63 -1 53 7 -5 8 -3 2 7 -14
22 -15 111 -1 128 9 12 9 13 0 7 -9 -5 -13 1 -13 19 0 18 4 24 13 19 9 -6 9
-4 1 7 -16 20 -16 241 0 232 6 -3 6 0 -1 8 -7 7 -13 24 -13 37 0 16 4 21 13
16 9 -6 9 -4 1 7 -6 8 -11 42 -12 77 -2 49 0 62 10 56 10 -6 11 -4 1 7 -7 7
-13 19 -13 27 0 8 5 10 13 6 10 -6 10 -4 0 7 -15 15 -18 63 -4 54 5 -3 13 -1
16 5 4 6 1 9 -7 8 -9 -2 -13 8 -13 30 0 32 2 34 97 72 254 102 473 245 655
428 108 107 156 164 220 256 23 34 46 66 50 71 42 51 156 285 197 403 80 232
109 403 109 647 1 245 -35 453 -114 668 -35 95 -138 311 -150 315 -5 2 -9 8
-9 13 0 10 -107 168 -152 224 -64 80 -265 272 -348 333 -47 34 -90 66 -96 70
-39 33 -209 122 -359 187 -67 29 -270 86 -352 100 -143 23 -184 27 -330 30
-78 2 -143 2 -145 0z"/>
<path d="M1665 6170 c-3 -6 1 -7 9 -4 18 7 21 14 7 14 -6 0 -13 -4 -16 -10z"/>
</g>
</svg>
